<?xml version="1.0" encoding="UTF-8" standalone="no"?>
<svg
   xmlns:dc="http://purl.org/dc/elements/1.1/"
   xmlns:cc="http://creativecommons.org/ns#"
   xmlns:rdf="http://www.w3.org/1999/02/22-rdf-syntax-ns#"
   xmlns:svg="http://www.w3.org/2000/svg"
   xmlns="http://www.w3.org/2000/svg"
   xmlns:xlink="http://www.w3.org/1999/xlink"
   width="48"
   height="48"
   viewBox="0 0 12.699999 12.7"
   version="1.1"
   id="svg3558">
  <defs
     id="defs3552">
    <filter
       id="filter6222"
       x="-0.14786731"
       width="1.2957346"
       y="-0.14786731"
       height="1.2957346">
      <feGaussianBlur
         stdDeviation="3.0496074"
         id="feGaussianBlur6224" />
    </filter>
    <linearGradient
       xlink:href="#linearGradient6198-7"
       id="linearGradient11795"
       gradientUnits="userSpaceOnUse"
       gradientTransform="rotate(90,-90.0007,50.0022)"
       x1="9.978035"
       y1="-367.08105"
       x2="-89.104881"
       y2="-393.63025" />
    <linearGradient
       id="linearGradient6198-7">
      <stop
         id="stop6200-8"
         offset="0"
         style="stop-color:#ff0000;stop-opacity:1;" />
      <stop
         id="stop6202-8"
         offset="1"
         style="stop-color:#2c0000;stop-opacity:1;" />
    </linearGradient>
    <radialGradient
       xlink:href="#linearGradient3640-1-9"
       id="radialGradient11797"
       gradientUnits="userSpaceOnUse"
       gradientTransform="matrix(0.457792,-4.14982e-8,-2.087256e-7,1.9108522,-121.47994,-83.798392)"
       cx="341.08624"
       cy="77.172691"
       fx="341.84244"
       fy="66.635597"
       r="36" />
    <linearGradient
       id="linearGradient3640-1-9">
      <stop
         style="stop-color:#ffffff;stop-opacity:1;"
         offset="0"
         id="stop3642-4-0" />
      <stop
         style="stop-color:#ffffff;stop-opacity:0;"
         offset="1"
         id="stop3644-9-9" />
    </linearGradient>
    <filter
       id="filter4908-4">
      <feGaussianBlur
         id="feGaussianBlur4910-3"
         stdDeviation="0.7474095" />
    </filter>
    <radialGradient
       xlink:href="#linearGradient6192-1"
       id="radialGradient11799"
       gradientUnits="userSpaceOnUse"
       cx="343.99899"
       cy="92"
       fx="351.2594"
       fy="66.436157"
       r="36" />
    <linearGradient
       id="linearGradient6192-1"
       gradientUnits="userSpaceOnUse"
       x1="-84.002403"
       y1="-383.9971"
       x2="-12.0029"
       y2="-383.9971"
       gradientTransform="rotate(90,-90.0007,50.0022)">
      <stop
         offset="0"
         style="stop-color:#ff1313;stop-opacity:1;"
         id="stop6194-0" />
      <stop
         offset="1"
         style="stop-color:#990000;stop-opacity:1;"
         id="stop6196-3" />
    </linearGradient>
    <linearGradient
       xlink:href="#linearGradient6204-6"
       id="linearGradient11801"
       gradientUnits="userSpaceOnUse"
       gradientTransform="matrix(0.75492742,0,0,0.75492742,73.066702,-41.154896)"
       x1="57.477966"
       y1="48.784237"
       x2="71.069473"
       y2="103.29678" />
    <linearGradient
       id="linearGradient6204-6">
      <stop
         id="stop6206-0"
         offset="0"
         style="stop-color:#e4a4a4;stop-opacity:1;" />
      <stop
         id="stop6208-4"
         offset="1"
         style="stop-color:#e4a4a4;stop-opacity:0;" />
    </linearGradient>
    <linearGradient
       xlink:href="#linearGradient6204-6"
       id="linearGradient11803"
       gradientUnits="userSpaceOnUse"
       gradientTransform="matrix(0.75492742,0,0,0.75492742,73.066702,-41.154896)"
       x1="65.490807"
       y1="101.17589"
       x2="54.427418"
       y2="74.327278" />
    <linearGradient
       xlink:href="#linearGradient6204-6"
       id="linearGradient11805"
       gradientUnits="userSpaceOnUse"
       x1="41.246826"
       y1="58.851654"
       x2="38.737919"
       y2="104.69202" />
    <filter
       id="filter4924-8">
      <feGaussianBlur
         id="feGaussianBlur4926-8"
         stdDeviation="0.21668441" />
    </filter>
    <radialGradient
       xlink:href="#linearGradient6210-6"
       id="radialGradient11807"
       gradientUnits="userSpaceOnUse"
       gradientTransform="matrix(0.72112598,0,0,-0.62257145,10.205727,154.73095)"
       cx="36.596191"
       cy="51.279228"
       fx="36.596191"
       fy="51.279228"
       r="34.265625" />
    <linearGradient
       id="linearGradient6210-6">
      <stop
         style="stop-color:#ffe9c1;stop-opacity:1;"
         offset="0"
         id="stop6212-7" />
      <stop
         style="stop-color:#ea8500;stop-opacity:0;"
         offset="1"
         id="stop6214-6" />
    </linearGradient>
    <filter
       id="filter6216">
      <feGaussianBlur
         stdDeviation="0.55410521"
         id="feGaussianBlur6218" />
    </filter>
  </defs>
  <metadata
     id="metadata3555">
    <rdf:RDF>
      <cc:Work
         rdf:about="">
        <dc:format>image/svg+xml</dc:format>
        <dc:type
           rdf:resource="http://purl.org/dc/dcmitype/StillImage" />
        <dc:title></dc:title>
      </cc:Work>
    </rdf:RDF>
  </metadata>
  <g
     id="layer1"
     transform="translate(-1.6036099,-270.07124)">
    <g
       id="g6240"
       transform="matrix(0.20803451,0,0,0.20727983,-12.781888,270.69107)">
      <circle
         transform="matrix(0.95272212,0,0,0.95272212,6.4285792,-5.8156911)"
         id="path6220"
         style="display:none;opacity:0.613527;fill:#000000;fill-opacity:1;stroke:none;filter:url(#filter6222)"
         cx="97.934288"
         cy="44.561401"
         r="24.748737" />
      <circle
         transform="matrix(-0.75311407,0.20179628,-0.20179628,-0.75311407,377.87944,28.172448)"
         id="circle3581_2_"
         cy="92"
         cx="343.99899"
         r="36"
         style="display:inline;fill:url(#linearGradient11795);fill-opacity:1" />
      <path
         transform="matrix(0.77984077,0,0,0.77984077,72.169432,-43.441684)"
         style="display:inline;fill:url(#radialGradient11797);fill-opacity:1;filter:url(#filter4908-4)"
         d="M 35.65625,56 C 32.68828,56.02905 29.686085,56.415282 26.6875,57.21875 14.434146,60.502026 5.3735564,69.754515 1.75,81 H 5.96875 C 9.4375391,71.564516 17.277216,63.891551 27.71875,61.09375 43.848444,56.771812 60.410073,65.605113 66.03125,81 h 4.25 C 65.40173,65.757015 51.121235,55.848633 35.65625,56 Z"
         id="circle3638" />
      <circle
         style="display:inline;fill:url(#radialGradient11799);fill-opacity:1"
         r="36"
         cx="343.99899"
         cy="92"
         id="circle4850"
         transform="matrix(-0.65006396,0.17418408,-0.17418408,-0.65006396,339.89038,28.185163)" />
      <path
         id="circle3435"
         d="M 100.00817,4.1407494 C 98.016528,4.1602411 96.004537,4.4272865 93.992346,4.9664511 81.808347,8.2311425 74.315156,20.279922 76.463874,32.47412 c 5.965094,1.072602 12.455528,1.674995 19.25065,1.674995 10.541256,0 20.356166,-1.42808 28.592876,-3.869003 0.22288,-2.695057 0.009,-5.4725 -0.73134,-8.233428 C 120.66458,11.180855 110.76307,4.0354831 100.00817,4.1407494 Z"
         style="display:inline;fill:url(#linearGradient11801);fill-opacity:1" />
      <path
         style="display:inline;fill:url(#linearGradient11803);fill-opacity:1"
         d="m 99.819442,4.1407494 c 10.414668,0.3763109 19.834368,7.2984636 22.671408,17.6228366 0.74693,2.718118 0.95637,5.4622 0.73134,8.115469 -8.31608,2.403077 -18.23316,3.79823 -28.875971,3.79823 -6.285537,0 -12.308152,-0.496375 -17.905936,-1.391898 0.01064,0.06331 0.01243,0.12541 0.0236,0.188733 5.965094,1.072602 12.455528,1.674995 19.25065,1.674995 10.541247,0 20.356157,-1.42808 28.592867,-3.869003 0.22289,-2.695057 0.009,-5.4725 -0.73134,-8.233428 -2.91148,-10.865829 -12.81299,-18.0112009 -23.56789,-17.9059346 -0.06307,6.175e-4 -0.1256,-0.00113 -0.188723,0 z"
         id="path3520" />
      <path
         transform="matrix(0.75492742,0,0,0.75492742,73.066702,-41.154896)"
         style="display:inline;fill:url(#linearGradient11805);fill-opacity:1;filter:url(#filter4924-8)"
         d="m 35.6875,60 c -2.638196,0.02582 -5.30334,0.379556 -7.96875,1.09375 C 13.951052,64.782792 4.7156811,76.948602 4.0625,90.46875 5.9516578,73.749445 19.025414,61.403828 35.6875,61.086736 49.931228,60.815667 63.0496,70.745063 66.90625,84.46875 67.518716,86.648179 67.871487,88.834771 67.96875,91 67.8981,88.588011 67.557671,86.149888 66.90625,83.71875 63.0496,69.32554 49.933759,59.860561 35.6875,60 Z"
         id="path3541" />
      <path
         transform="matrix(0.77984077,0,0,0.77984077,72.169432,-43.441684)"
         id="path4854"
         d="m 35.65625,127.99829 c -2.96797,-0.029 -5.970165,-0.41528 -8.96875,-1.21875 C 14.434146,123.49626 5.3735564,114.24378 1.75,102.99829 h 4.21875 c 3.4687891,9.43548 11.308466,17.10845 21.75,19.90625 16.129694,4.32194 32.691323,-4.51136 38.3125,-19.90625 h 4.25 c -4.87952,15.24299 -19.160015,25.15137 -34.625,25 z"
         style="display:inline;opacity:0.381643;fill:url(#radialGradient11807);fill-opacity:1;filter:url(#filter6216)" />
      <rect
         y="38.065304"
         x="95.503922"
         height="9.4439774"
         width="9.4097157"
         id="rect6233"
         style="display:inline;fill:#ffffff;fill-opacity:1;stroke:none"
         rx="0"
         ry="0" />
      <path
         id="rect6235"
         d="m 95.503918,9.7333661 h 9.409722 V 33.343313 h -9.409722 z"
         style="fill:#ffffff;fill-opacity:1;stroke:none" />
    </g>
  </g>
</svg>
