<?xml version="1.0" encoding="UTF-8" standalone="no"?>
<svg
   xmlns:dc="http://purl.org/dc/elements/1.1/"
   xmlns:cc="http://creativecommons.org/ns#"
   xmlns:rdf="http://www.w3.org/1999/02/22-rdf-syntax-ns#"
   xmlns:svg="http://www.w3.org/2000/svg"
   xmlns="http://www.w3.org/2000/svg"
   xmlns:xlink="http://www.w3.org/1999/xlink"
   id="svg47"
   version="1.1"
   width="48"
   height="48">
  <metadata
     id="metadata51">
    <rdf:RDF>
      <cc:Work
         rdf:about="">
        <dc:format>image/svg+xml</dc:format>
        <dc:type
           rdf:resource="http://purl.org/dc/dcmitype/StillImage" />
        <dc:title></dc:title>
      </cc:Work>
    </rdf:RDF>
  </metadata>
  <defs
     id="defs32">
    <linearGradient
       x1="15.74"
       x2="53.6"
       y1="10.5"
       gradientUnits="userSpaceOnUse"
       y2="45.4"
       id="h">
      <stop
         id="stop2"
         offset="0"
         stop-color="#ff8b8b" />
      <stop
         id="stop4"
         offset="1"
         stop-color="#ec1b1b" />
    </linearGradient>
    <linearGradient
       x1="24"
       x2="41"
       y1="18.1"
       gradientUnits="userSpaceOnUse"
       y2="35.96"
       id="f">
      <stop
         id="stop7"
         offset="0"
         stop-color="#c00" />
      <stop
         id="stop9"
         offset="1"
         stop-color="#b30000" />
    </linearGradient>
    <linearGradient
       x1="15.16"
       x2="32.59"
       y1="10.54"
       gradientUnits="userSpaceOnUse"
       y2="38.19"
       id="g">
      <stop
         id="stop12"
         offset="0"
         stop-opacity=".3"
         stop-color="#ff0202" />
      <stop
         id="stop14"
         offset="1"
         stop-opacity=".8"
         stop-color="#ff9b9b" />
    </linearGradient>
    <radialGradient
       r="21.25"
       gradientTransform="matrix(4.155 0 0 3.199-52.85-23.51)"
       cx="16.75"
       cy="10.67"
       gradientUnits="userSpaceOnUse"
       id="d">
      <stop
         id="stop17"
         offset="0"
         stop-color="#fff" />
      <stop
         id="stop19"
         offset="1"
         stop-opacity="0"
         stop-color="#fff" />
    </radialGradient>
    <radialGradient
       r="18.5"
       gradientTransform="matrix(1 0 0 .3027 0 29.03)"
       cx="24.24"
       cy="41.63"
       gradientUnits="userSpaceOnUse"
       id="c">
      <stop
         id="stop22"
         offset="0" />
      <stop
         id="stop24"
         offset="1"
         stop-opacity="0" />
    </radialGradient>
    <radialGradient
       r="316.9"
       gradientTransform="matrix(.1518 0 0 .08065 -28.53 -6.355)"
       cx="341.4"
       cy="328.2"
       gradientUnits="userSpaceOnUse"
       id="a">
      <stop
         id="stop27"
         offset="0"
         stop-color="#fff" />
      <stop
         id="stop29"
         offset="1"
         stop-color="#b8b8b8" />
    </radialGradient>
  </defs>
  <ellipse
     style="display:none;opacity:0.62999998;fill:url(#c)"
     id="ellipse34"
     cx="24.24"
     cy="41.630001"
     ry="5.5999999"
     rx="18.5" />
  <path
     style="display:inline;fill:url(#f);stroke:#880000"
     id="path36"
     d="m 32.69,0.49 12.82,13.1 v 17.89 l -12.65,12 H 15.43 L 2.5,30.64 V 13.44 L 15.6,0.48 Z" />
  <path
     style="display:inline;opacity:0.8;fill:none;stroke:url(#h)"
     id="path38"
     d="m 32.23,1.5 12.25,12.42 v 17.1 L 32.62,42.47 H 15.85 L 3.49,30.19 V 13.83 L 16,1.49 Z" />
  <g
     id="g41"
     stroke="url(#g)"
     stroke-linejoin="round">
    <path
       fill="url(#a)"
       d="m41.2 22.34c-0.66 0.7-1.61 1.05-2.84 1.05h-2.27v6.42h-2.09v-14.63h4.36c0.57 0 1.09 0.1 1.56 0.29 0.47 0.2 0.88 0.47 1.22 0.83s0.6 0.79 0.78 1.3 0.27 1.07 0.27 1.68c0 1.34-0.33 2.36-0.99 3.06m-1.58-4.54c-0.35-0.38-0.81-0.57-1.37-0.57h-2.16v4.15h2.16c0.61 0 1.08-0.18 1.41-0.55 0.33-0.36 0.49-0.88 0.49-1.55 0-0.61-0.17-1.11-0.52-1.48m-9.43 3.56c-0.06-1.12-0.26-2.25-0.7-3.29-0.25-0.58-0.78-1.07-1.44-1.1-0.74-0.03-1.4 0.45-1.69 1.11-0.56 1.29-0.71 2.72-0.72 4.12-0.001 1.5 0.11 3 0.6 4.44 0.23 0.68 0.79 1.31 1.56 1.38 0.64 0.06 1.25-0.27 1.56-0.83 0.44-0.82 0.66-1.74 0.78-2.66 0.14-1.05 0.13-2.11 0.07-3.17m1.86 3.98c-0.23 1.32-0.65 2.66-1.53 3.69-0.94 1.1-2.58 1.25-3.89 0.86-1.34-0.41-2.03-1.76-2.45-3-0.65-1.93-0.63-4-0.52-6 0.09-1.7 0.51-3.47 1.59-4.82 0.91-1.13 2.53-1.3 3.86-0.97 1.26 0.31 1.96 1.51 2.4 2.64 0.78 2.05 0.79 4.27 0.68 6.43-0.02 0.4-0.07 0.81-0.13 1.21m-12.19-8.28v12.69h-2.12v-12.69h-2.67v-1.94h7.47v1.94h-2.67m-11.73 8.41c-0.02 1.01 0.48 2.2 1.55 2.46 0.95 0.25 2-0.3 2.36-1.21 0.45-0.95 0.16-2.16-0.67-2.81-0.99-0.91-2.21-1.52-3.25-2.36-1.13-0.92-1.59-2.52-1.19-3.91 0.42-1.63 2.03-2.85 3.71-2.76 1.47 0 2.85 0.98 3.35 2.36 0.18 0.46 0.27 0.95 0.28 1.44h-2c0-0.87-0.74-1.68-1.62-1.68-0.96-0.09-1.9 0.77-1.82 1.75-0.02 0.69 0.54 1.2 1.09 1.51 1.51 0.88 3.09 1.88 3.9 3.48 0.87 1.74 0.51 4.07-1.02 5.32-1.34 1.2-3.51 1.31-4.95 0.23-1.18-0.87-1.76-2.38-1.76-3.82z"
       stroke-linejoin="round"
       id="b" />
  </g>
  <use
     height="100%"
     width="100%"
     y="0"
     x="0"
     style="display:inline;opacity:1;stroke:#ffffff;stroke-width:0.30000001;stroke-opacity:0.76000001"
     id="use43"
     xlink:href="#b" />
  <path
     id="path45"
     fill="url(#d)"
     d="m2.75 13.56v17l2.94 2.91c16.76 0.06 16.47-13 39.56-11.88v-7.9l-12.69-12.94h-16.87z"
     opacity=".3" />
</svg>
