<?xml version="1.0" encoding="UTF-8" standalone="no"?>
<svg
   xmlns:dc="http://purl.org/dc/elements/1.1/"
   xmlns:cc="http://creativecommons.org/ns#"
   xmlns:rdf="http://www.w3.org/1999/02/22-rdf-syntax-ns#"
   xmlns:svg="http://www.w3.org/2000/svg"
   xmlns="http://www.w3.org/2000/svg"
   xml:space="preserve"
   width="128px"
   height="128px"
   shape-rendering="geometricPrecision"
   text-rendering="geometricPrecision"
   image-rendering="optimizeQuality"
   fill-rule="evenodd"
   clip-rule="evenodd"
   viewBox="0 0 128 128"
   version="1.1"
   id="svg271"><metadata
   id="metadata275"><rdf:RDF><cc:Work
       rdf:about=""><dc:format>image/svg+xml</dc:format><dc:type
         rdf:resource="http://purl.org/dc/dcmitype/StillImage" /><dc:title></dc:title></cc:Work></rdf:RDF></metadata>
 <defs
   id="defs222">
   <mask
   id="id0">
     <linearGradient
   id="id1"
   gradientUnits="userSpaceOnUse"
   x1="66.2677"
   y1="123.942"
   x2="13.2781"
   y2="123.942">
      <stop
   offset="0"
   stop-opacity="1"
   stop-color="white"
   id="stop2" />
      <stop
   offset="1"
   stop-opacity="0"
   stop-color="white"
   id="stop4" />
     </linearGradient>
    <rect
   fill="url(#id1)"
   x="12.8269"
   y="119.49"
   width="53.8908"
   height="8.90444"
   id="rect7" />
   </mask>
   <mask
   id="id2">
     <linearGradient
   id="id3"
   gradientUnits="userSpaceOnUse"
   x1="66.2429"
   y1="123.737"
   x2="119.233"
   y2="123.737">
      <stop
   offset="0"
   stop-opacity="1"
   stop-color="white"
   id="stop10" />
      <stop
   offset="1"
   stop-opacity="0"
   stop-color="white"
   id="stop12" />
     </linearGradient>
    <rect
   fill="url(#id3)"
   x="65.7929"
   y="119.286"
   width="53.8908"
   height="8.90444"
   id="rect15" />
   </mask>
   <mask
   id="id4">
     <linearGradient
   id="id5"
   gradientUnits="userSpaceOnUse"
   x1="98.4839"
   y1="124.484"
   x2="75.0671"
   y2="124.484">
      <stop
   offset="0"
   stop-opacity="1"
   stop-color="white"
   id="stop18" />
      <stop
   offset="0.2"
   stop-opacity="0.501961"
   stop-color="white"
   id="stop20" />
      <stop
   offset="1"
   stop-opacity="0"
   stop-color="white"
   id="stop22" />
     </linearGradient>
    <rect
   fill="url(#id5)"
   x="67.4406"
   y="121.6"
   width="38.6698"
   height="5.76857"
   id="rect25" />
   </mask>
   <mask
   id="id6">
     <linearGradient
   id="id7"
   gradientUnits="userSpaceOnUse"
   x1="32.326"
   y1="124.215"
   x2="52.7569"
   y2="124.526">
      <stop
   offset="0"
   stop-opacity="1"
   stop-color="white"
   id="stop28" />
      <stop
   offset="0.25098"
   stop-opacity="0.501961"
   stop-color="white"
   id="stop30" />
      <stop
   offset="1"
   stop-opacity="0"
   stop-color="white"
   id="stop32" />
     </linearGradient>
    <rect
   fill="url(#id7)"
   x="23.2066"
   y="121.486"
   width="38.6698"
   height="5.76857"
   id="rect35" />
   </mask>
   <linearGradient
   id="id8"
   gradientUnits="userSpaceOnUse"
   x1="23.2668"
   y1="114.071"
   x2="40.5395"
   y2="124.042">
    <stop
   offset="0"
   stop-color="#999EA2"
   id="stop38" />
    <stop
   offset="0.368627"
   stop-color="#B6BBBF"
   id="stop40" />
    <stop
   offset="0.501961"
   stop-color="white"
   id="stop42" />
    <stop
   offset="0.631373"
   stop-color="#2B2828"
   id="stop44" />
    <stop
   offset="0.74902"
   stop-color="#B1B6BA"
   id="stop46" />
    <stop
   offset="1"
   stop-color="#B5BABE"
   id="stop48" />
   </linearGradient>
   <linearGradient
   id="id9"
   gradientUnits="userSpaceOnUse"
   x1="88.7822"
   y1="124.313"
   x2="106.045"
   y2="114.346">
    <stop
   offset="0"
   stop-color="#999EA2"
   id="stop51" />
    <stop
   offset="0.121569"
   stop-color="#9BA0A4"
   id="stop53" />
    <stop
   offset="0.321569"
   stop-color="#DDDEE1"
   id="stop55" />
    <stop
   offset="0.458824"
   stop-color="#2B2828"
   id="stop57" />
    <stop
   offset="0.611765"
   stop-color="#7A8184"
   id="stop59" />
    <stop
   offset="0.741176"
   stop-color="#94999D"
   id="stop61" />
    <stop
   offset="1"
   stop-color="#999EA2"
   id="stop63" />
   </linearGradient>
   <linearGradient
   id="id10"
   gradientUnits="userSpaceOnUse"
   x1="11.4427"
   y1="38.6674"
   x2="116.912"
   y2="38.6674">
    <stop
   offset="0"
   stop-color="#33393F"
   id="stop66" />
    <stop
   offset="0.121569"
   stop-color="#676D73"
   id="stop68" />
    <stop
   offset="0.258824"
   stop-color="white"
   id="stop70" />
    <stop
   offset="0.568627"
   stop-color="#656A70"
   id="stop72" />
    <stop
   offset="1"
   stop-color="#34383C"
   id="stop74" />
   </linearGradient>
   <linearGradient
   id="id11"
   gradientUnits="userSpaceOnUse"
   x1="10.2769"
   y1="119.907"
   x2="119.162"
   y2="28.5405">
    <stop
   offset="0"
   stop-color="#43433E"
   id="stop77" />
    <stop
   offset="0.211765"
   stop-color="#7F8180"
   id="stop79" />
    <stop
   offset="0.411765"
   stop-color="white"
   id="stop81" />
    <stop
   offset="0.509804"
   stop-color="#2B2828"
   id="stop83" />
    <stop
   offset="0.6"
   stop-color="white"
   id="stop85" />
    <stop
   offset="0.811765"
   stop-color="#7F8180"
   id="stop87" />
    <stop
   offset="1"
   stop-color="#43433E"
   id="stop89" />
   </linearGradient>
   <linearGradient
   id="id12"
   gradientUnits="userSpaceOnUse"
   x1="113.915"
   y1="32.9425"
   x2="15.5234"
   y2="115.504">
    <stop
   offset="0"
   stop-color="#95979A"
   id="stop92" />
    <stop
   offset="0.109804"
   stop-color="#97999C"
   id="stop94" />
    <stop
   offset="0.25098"
   stop-color="white"
   id="stop96" />
    <stop
   offset="0.501961"
   stop-color="#2B2828"
   id="stop98" />
    <stop
   offset="0.780392"
   stop-color="#FAFAFA"
   id="stop100" />
    <stop
   offset="0.921569"
   stop-color="#9D9FA2"
   id="stop102" />
    <stop
   offset="1"
   stop-color="#95979A"
   id="stop104" />
   </linearGradient>
   <radialGradient
   id="id13"
   gradientUnits="userSpaceOnUse"
   cx="64.7323"
   cy="74.2367"
   r="44.2529"
   fx="64.7323"
   fy="74.2367">
    <stop
   offset="0"
   stop-color="#B22D2B"
   id="stop107" />
    <stop
   offset="0.341176"
   stop-color="#A22927"
   id="stop109" />
    <stop
   offset="0.690196"
   stop-color="#8C2929"
   id="stop111" />
    <stop
   offset="0.941176"
   stop-color="#67292A"
   id="stop113" />
    <stop
   offset="1"
   stop-color="#67292A"
   id="stop115" />
   </radialGradient>
   <mask
   id="id14">
     <linearGradient
   id="id15"
   gradientUnits="userSpaceOnUse"
   x1="36.6784"
   y1="31.5335"
   x2="69.5961"
   y2="82.0923">
      <stop
   offset="0"
   stop-opacity="1"
   stop-color="white"
   id="stop118" />
      <stop
   offset="0.109804"
   stop-opacity="0.501961"
   stop-color="white"
   id="stop120" />
      <stop
   offset="1"
   stop-opacity="0"
   stop-color="white"
   id="stop122" />
     </linearGradient>
    <rect
   fill="url(#id15)"
   x="29.75"
   y="30.3913"
   width="46.7746"
   height="52.8432"
   id="rect125" />
   </mask>
   <linearGradient
   id="id16"
   gradientUnits="userSpaceOnUse"
   x1="31.3173"
   y1="30.8094"
   x2="74.9572"
   y2="82.8164">
    <stop
   offset="0"
   stop-color="#C49A94"
   id="stop128" />
    <stop
   offset="1"
   stop-color="#C47A77"
   id="stop130" />
   </linearGradient>
   <linearGradient
   id="id17"
   gradientUnits="userSpaceOnUse"
   x1="42.6761"
   y1="100.009"
   x2="68.8012"
   y2="73.8836">
    <stop
   offset="0"
   stop-color="#9EA1A5"
   id="stop133" />
    <stop
   offset="0.501961"
   stop-color="#FDFDFD"
   id="stop135" />
    <stop
   offset="1"
   stop-color="white"
   id="stop137" />
   </linearGradient>
   <linearGradient
   id="id18"
   gradientUnits="userSpaceOnUse"
   x1="64.5339"
   y1="44.847"
   x2="64.5339"
   y2="85.5554">
    <stop
   offset="0"
   stop-color="#9EA1A5"
   id="stop140" />
    <stop
   offset="0.470588"
   stop-color="#FDFDFD"
   id="stop142" />
    <stop
   offset="1"
   stop-color="white"
   id="stop144" />
   </linearGradient>
   <linearGradient
   id="id19"
   gradientUnits="userSpaceOnUse"
   x1="-0.30709"
   y1="48.7447"
   x2="47.9841"
   y2="-8.80405">
    <stop
   offset="0"
   stop-color="#2B2828"
   id="stop147" />
    <stop
   offset="0.831373"
   stop-color="#ECF1F4"
   id="stop149" />
    <stop
   offset="1"
   stop-color="#F0F5F7"
   id="stop151" />
   </linearGradient>
   <linearGradient
   id="id20"
   gradientUnits="userSpaceOnUse"
   x1="45.8569"
   y1="6.33433"
   x2="78.6919"
   y2="6.33433">
    <stop
   offset="0"
   stop-color="white"
   id="stop154" />
    <stop
   offset="1"
   stop-color="#C2C2C6"
   id="stop156" />
   </linearGradient>
   <linearGradient
   id="id21"
   gradientUnits="userSpaceOnUse"
   x1="121.998"
   y1="47.3214"
   x2="82.8931"
   y2="0.7193">
    <stop
   offset="0"
   stop-color="#2B2828"
   id="stop159" />
    <stop
   offset="0.831373"
   stop-color="#ECF1F4"
   id="stop161" />
    <stop
   offset="1"
   stop-color="#F0F5F7"
   id="stop163" />
   </linearGradient>
   <mask
   id="id22">
     <linearGradient
   id="id23"
   gradientUnits="userSpaceOnUse"
   x1="98.9918"
   y1="5.55361"
   x2="98.9918"
   y2="26.2728">
      <stop
   offset="0"
   stop-opacity="1"
   stop-color="white"
   id="stop166" />
      <stop
   offset="1"
   stop-opacity="0"
   stop-color="white"
   id="stop168" />
     </linearGradient>
    <rect
   fill="url(#id23)"
   x="84.8762"
   y="5.10242"
   width="28.2322"
   height="21.6203"
   id="rect171" />
   </mask>
   <mask
   id="id24">
     <linearGradient
   id="id25"
   gradientUnits="userSpaceOnUse"
   x1="31.3173"
   y1="7.39734"
   x2="27.8543"
   y2="24.4905">
      <stop
   offset="0"
   stop-opacity="1"
   stop-color="white"
   id="stop174" />
      <stop
   offset="1"
   stop-opacity="0"
   stop-color="white"
   id="stop176" />
     </linearGradient>
    <rect
   fill="url(#id25)"
   x="15.4892"
   y="5.17447"
   width="28.1921"
   height="21.5377"
   id="rect179" />
   </mask>
   <linearGradient
   id="id26"
   gradientUnits="userSpaceOnUse"
   x1="6.33551"
   y1="33.5626"
   x2="44.247"
   y2="11.6742">
    <stop
   offset="0"
   stop-color="#F0F5F7"
   id="stop182" />
    <stop
   offset="0.258824"
   stop-color="#2B2828"
   id="stop184" />
    <stop
   offset="0.458824"
   stop-color="#FAFAFA"
   id="stop186" />
    <stop
   offset="0.670588"
   stop-color="#F3F6F8"
   id="stop188" />
    <stop
   offset="1"
   stop-color="#F0F5F7"
   id="stop190" />
   </linearGradient>
   <linearGradient
   id="id27"
   gradientUnits="userSpaceOnUse"
   x1="87.1038"
   y1="7.66545"
   x2="121.866"
   y2="36.8367">
    <stop
   offset="0"
   stop-color="#F0F5F7"
   id="stop193" />
    <stop
   offset="0.321569"
   stop-color="#F0F5F7"
   id="stop195" />
    <stop
   offset="0.490196"
   stop-color="white"
   id="stop197" />
    <stop
   offset="0.631373"
   stop-color="#2B2828"
   id="stop199" />
    <stop
   offset="0.858824"
   stop-color="#E7EDF0"
   id="stop201" />
    <stop
   offset="1"
   stop-color="#F0F5F7"
   id="stop203" />
   </linearGradient>
   <mask
   id="id28">
     <linearGradient
   id="id29"
   gradientUnits="userSpaceOnUse"
   x1="33.7221"
   y1="116.049"
   x2="31.459"
   y2="119.309">
      <stop
   offset="0"
   stop-opacity="1"
   stop-color="white"
   id="stop206" />
      <stop
   offset="1"
   stop-opacity="0"
   stop-color="white"
   id="stop208" />
     </linearGradient>
    <rect
   fill="url(#id29)"
   x="24.5802"
   y="111.496"
   width="16.0207"
   height="12.3675"
   id="rect211" />
   </mask>
   <mask
   id="id30">
     <linearGradient
   id="id31"
   gradientUnits="userSpaceOnUse"
   x1="95.9811"
   y1="116.404"
   x2="97.4551"
   y2="119.43">
      <stop
   offset="0"
   stop-opacity="1"
   stop-color="white"
   id="stop214" />
      <stop
   offset="1"
   stop-opacity="0"
   stop-color="white"
   id="stop216" />
     </linearGradient>
    <rect
   fill="url(#id31)"
   x="88.7161"
   y="111.787"
   width="16.0041"
   height="12.26"
   id="rect219" />
   </mask>
 </defs>
 <g
   id="Capa_x0020_1">
  <metadata
   id="CorelCorpID_0Corel-Layer" />
  <path
   id="lshadow"
   fill="#131516"
   mask="url(#id0)"
   d="M66.2677 119.94l0 7.79773c-35.3591,1.56262 -99.1406,-6.19968 0,-7.79773z" />
  <path
   id="rshadow"
   fill="#131516"
   mask="url(#id2)"
   d="M66.2429 127.74l0 -7.79773c35.3591,-1.56262 99.1406,6.20086 0,7.79773z" />
  <path
   id="rfootsw"
   fill="#131516"
   mask="url(#id4)"
   d="M105.66 123.971c-1.60041,-2.38113 -13.147,-2.06695 -19.9065,-1.58033 -4.86384,2.25593 -10.18,3.46776 -17.8632,4.31462 10.3112,0.499612 38.3792,0.31772 37.7698,-2.73429z" />
  <path
   id="lfootsw"
   fill="#131516"
   mask="url(#id6)"
   d="M23.6566 123.858c1.60041,-2.38113 13.147,-2.06695 19.9065,-1.58033 4.86384,2.25593 10.18,3.46776 17.8632,4.31462 -10.3112,0.499612 -38.3792,0.31772 -37.7698,-2.73429z" />
  <path
   id="border"
   fill="#131516"
   fill-opacity="0.501961"
   d="M10.6714 75.934c-0.0377957,-10.5698 1.77286,-24.5519 3.74887,-32.7299l-4.78825 -1.32758c-5.55007,-11.1545 -4.91817,-22.4483 2.84295,-31.3138 8.50404,-8.87019 21.5448,-9.49972 31.2535,-0.479533l3.25161 3.09335c11.021,-3.7843 22.8274,-3.47721 35.0544,0.674418l2.09412 -2.55712c8.89027,-10.558 23.9448,-9.26941 32.0472,-0.471266 6.5741,7.32292 8.95995,18.5353 3.00712,31.0161 -2.20633,1.11734 -3.96855,1.36419 -6.57764,0.944894 2.97641,7.22371 4.95479,15.4868 5.76385,23.2763 2.83468,18.8967 -4.31462,35.8008 -15.7443,46.673 0.0531503,3.16776 1.10907,7.00402 4.24848,11.0493 0.643709,3.45595 -13.7931,3.8091 -16.6632,1.04883l-1.53073 -2.44727c-7.71506,3.63312 -13.9915,5.10833 -22.4117,5.354 -10.3808,0.0637803 -18.8613,-1.89805 -25.7932,-5.59141l-1.62404 2.73783c-3.27642,2.67169 -17.4616,1.93231 -16.186,-1.26852 2.35397,-3.58115 4.22722,-7.30757 4.27564,-11.0623 -9.34854,-8.53121 -16.2427,-22.8475 -16.2687,-36.6193z" />
  <path
   id="lfoot"
   fill="url(#id8)"
   d="M28.3362 112.123c3.33311,3.41225 7.2308,6.2859 11.8147,8.50758l-2.02207 3.26579c-0.467722,2.09294 -13.9655,1.99609 -14.4722,-0.0389769 2.80161,-3.5717 4.65124,-8.81113 4.67959,-11.7344z" />
  <path
   id="rfoot"
   fill="url(#id9)"
   d="M105.66 123.971c-0.903554,2.27956 -14.3128,1.88742 -14.4722,0.0389769l-2.02207 -3.26579c3.95674,-2.26184 8.01506,-5.08235 11.634,-8.33632 0.72993,3.99808 2.02207,7.9064 4.8603,11.5631z" />
  <path
   id="topside"
   fill="url(#id10)"
   d="M16.3183 42.5958c19.1282,-41.1938 75.2301,-41.1938 94.3582,0 2.4709,3.69217 6.23512,19.3609 6.05086,23.6448 -4.34297,-28.7567 -28.5441,-44.5234 -52.0081,-44.4868 -23.4629,0.0366146 -52.4298,22.6326 -52.5869,54.179 -0.689772,-7.00993 2.48389,-30.0972 4.18588,-33.337z" />
  <path
   id="front"
   fill="url(#id11)"
   d="M64.7193 21.7538c28.8937,0 52.614,23.496 52.614,52.4699 0,28.974 -23.5609,52.4699 -52.614,52.4699 -29.0543,0 -52.6152,-23.496 -52.6152,-52.4699 0,-28.974 23.7216,-52.4699 52.6152,-52.4699z" />
  <path
   id="insfornt"
   fill="url(#id12)"
   d="M64.7193 26.8114c26.2539,0 47.5435,21.2306 47.5435,47.4112 0,26.1818 -21.2896,47.4124 -47.5435,47.4124 -26.2527,0 -47.5423,-21.2306 -47.5423,-47.4124 0,-26.1806 21.2896,-47.4112 47.5423,-47.4112z" />
  <path
   id="face"
   fill="url(#id13)"
   d="M64.7323 29.5019c24.7704,0 44.8576,20.0317 44.8576,44.7348 0,24.7031 -20.0873,44.736 -44.8576,44.736 -24.7704,0 -44.8588,-20.0329 -44.8588,-44.736 0,-24.7031 20.0884,-44.7348 44.8588,-44.7348z" />
  <polygon
   id="arrowsw"
   fill="#67292C"
   points="66.6941,85.5566 66.6941,46.484 68.4268,46.484 68.4268,77.323 70.3709,79.4195 68.4268,81.366 68.4268,86.9609 63.3988,87.0046 63.4047,85.5566 47.7726,99.541 46.9494,98.5016 62.3736,84.7487 62.3736,85.5566 " />
  <path
   id="shinel"
   fill="white"
   d="M107.068 59.4149c7.44104,18.2908 -1.11261,39.9938 -14.8951,50.2565 -10.897,8.11427 -25.0609,12.4183 -41.6686,7.00284 38.7265,9.47374 65.141,-26.7015 56.5637,-57.2594z" />
  <path
   id="reflex"
   fill="url(#id16)"
   mask="url(#id14)"
   d="M43.51 41.9013c11.4958,-7.41978 25.1271,-6.76308 30.4433,1.47049 5.31503,8.23238 0.303547,20.9282 -11.1911,28.3492 -11.4934,7.42214 -25.1271,6.76308 -30.4433,-1.46931 -5.31384,-8.23357 -0.303547,-20.9282 11.1911,-28.3503z" />
  <polygon
   id="harrow"
   fill="url(#id17)"
   points="42.1517,95.3409 65.6311,74.4068 69.3268,78.5502 45.8462,99.4855 " />
  <polygon
   id="marrow"
   fill="url(#id18)"
   points="62.3736,44.847 66.6929,44.847 66.6929,85.5566 62.3736,85.5566 " />
  <path
   id="lbellb"
   fill="url(#id19)"
   d="M42.9832 11.5017c6.97331,5.67645 -19.0172,35.5882 -32.4535,29.098 -12.808,-23.9719 13.2179,-47.749 32.4535,-29.098z" />
  <path
   id="lbellsw"
   fill="#373D40"
   d="M16.9254 41.3296c9.88595,-2.15554 21.8247,-12.9108 26.6283,-23.9342l1.49884 -0.584653 -1.70199 4.69612 -0.334256 0.923633c-0.861034,1.96538 -2.29609,4.30753 -4.48943,6.32016 -4.61817,2.91263 -9.9013,6.85875 -13.4057,10.9891 -3.18429,1.97601 -5.90913,3.09807 -9.09578,3.51855l0.900011 -1.92876z" />
  <path
   id="handbord"
   fill="#131516"
   fill-opacity="0.501961"
   d="M47.7951 4.65596c5.55007,-2.95515 11.1438,-4.5036 16.7388,-4.59336 5.3977,-0.0874027 9.72177,0.657882 15.9793,4.32879 2.19806,1.29096 3.55634,5.60086 3.92603,8.77097 -0.574023,2.74964 0.884657,5.76267 3.04492,9.48909 -6.77725,0.38032 -6.02015,-11.0576 -8.36585,-12.7254 -2.92326,-1.71498 -10.0608,-3.49847 -14.5844,-3.54335 -5.20046,-0.050788 -9.31429,0.989776 -13.9053,3.08626 -3.83036,2.04688 -3.80556,12.9179 -9.76075,13.2155 2.93271,-5.19573 3.99454,-9.25287 3.18902,-12.169 0.611819,-2.42956 1.63939,-4.74218 3.73823,-5.85952z" />
  <path
   id="rbellsw"
   fill="#373D40"
   d="M83.5758 17.0955l1.77286 0.842136c1.34765,3.73351 5.70952,9.67453 10.6891,14.5348 3.90005,3.8091 10.5049,7.27922 13.7352,8.26664l0.904736 1.85672c-1.30041,-0.261027 -3.44768,-0.981508 -4.82368,-1.52837 -3.90832,-4.32997 -12.0356,-10.5261 -16.6195,-13.4175 -3.57642,-4.32997 -4.58746,-6.94497 -5.65873,-10.5545z" />
  <path
   id="p12"
   fill="#9EA1A5"
   d="M64.5339 36.2981c1.12442,0 2.03625,0.869302 2.03625,1.94176 0,1.07245 -0.911822,1.94294 -2.03625,1.94294 -1.12324,0 -2.03625,-0.870483 -2.03625,-1.94294 0,-1.07245 0.913003,-1.94176 2.03625,-1.94176z" />
  <path
   id="p6"
   fill="#9EA1A5"
   d="M64.5339 108.712c1.12442,0 2.03625,0.870483 2.03625,1.94176 0,1.07364 -0.911822,1.94294 -2.03625,1.94294 -1.12324,0 -2.03625,-0.869302 -2.03625,-1.94294 0,-1.07127 0.913003,-1.94176 2.03625,-1.94176z" />
  <path
   id="p3"
   fill="#9EA1A5"
   d="M101.222 74.4399c1.12324,0 2.03625,0.870483 2.03625,1.94176 0,1.07364 -0.913003,1.94294 -2.03625,1.94294 -1.12442,0 -2.03625,-0.869302 -2.03625,-1.94294 0,-1.07127 0.911822,-1.94176 2.03625,-1.94176z" />
  <path
   id="p9"
   fill="#9EA1A5"
   d="M28.2181 74.447c1.12442,0 2.03625,0.870483 2.03625,1.94176 0,1.07364 -0.911822,1.94294 -2.03625,1.94294 -1.12324,0 -2.03625,-0.869302 -2.03625,-1.94294 0,-1.07127 0.913003,-1.94176 2.03625,-1.94176z" />
  <path
   id="p1t2"
   fill="#9EA1A5"
   d="M91.0984 47.0545c1.12442,0 2.03625,0.869302 2.03625,1.94176 0,1.07364 -0.911822,1.94294 -2.03625,1.94294 -1.12324,0 -2.03625,-0.869302 -2.03625,-1.94294 0,-1.07245 0.913003,-1.94176 2.03625,-1.94176z" />
  <path
   id="p4t5"
   fill="#9EA1A5"
   d="M89.3822 99.176c1.12442,0 2.03625,0.869302 2.03625,1.94176 0,1.07245 -0.911822,1.94294 -2.03625,1.94294 -1.12442,0 -2.03625,-0.870483 -2.03625,-1.94294 0,-1.07245 0.911822,-1.94176 2.03625,-1.94176z" />
  <path
   id="p10t11"
   fill="#9EA1A5"
   d="M37.6103 47.8376c1.12324,0 2.03625,0.870483 2.03625,1.94176 0,1.07364 -0.913003,1.94294 -2.03625,1.94294 -1.12442,0 -2.03743,-0.869302 -2.03743,-1.94294 0,-1.07127 0.913003,-1.94176 2.03743,-1.94176z" />
  <path
   id="p7t8"
   fill="#9EA1A5"
   d="M40.2135 99.3178c1.12442,0 2.03743,0.869302 2.03743,1.94176 0,1.07364 -0.913003,1.94294 -2.03743,1.94294 -1.12324,0 -2.03625,-0.869302 -2.03625,-1.94294 0,-1.07245 0.913003,-1.94176 2.03625,-1.94176z" />
  <path
   id="faceshw"
   fill="#67292C"
   d="M98.1591 44.4088c-19.1152,-15.4242 -40.9151,-16.4234 -57.9539,-3.88351 -17.0376,12.5399 -23.2137,31.4118 -14.158,56.3688 -9.72532,-13.8923 -10.6088,-42.5651 12.1939,-58.7594 22.8038,-16.1955 49.9955,-5.68235 59.9181,6.27409z" />
  <path
   id="glassshw"
   fill="#996054"
   d="M108.64 69.1946c0.294098,14.7982 -5.19337,27.657 -16.8215,38.4619 -13.0962,10.5261 -27.4799,12.873 -42.9277,8.44499 37.015,6.66268 56.905,-17.5479 59.7492,-46.9069z" />
  <path
   id="topdv"
   fill="#7D8286"
   d="M42.4907 19.6951c2.41657,-4.80124 1.46931,-11.3127 6.17724,-14.3246 2.5772,-1.64766 9.09814,-4.23667 15.8659,-4.24493 6.98513,-0.00826782 13.8746,2.59846 15.436,4.01816 3.02602,2.752 3.88824,10.9053 5.84653,14.5514 0.223231,0.694497 0.858672,1.65002 1.26616,2.31263 -6.25874,-1.75868 -4.04769,-10.4612 -7.65246,-12.821 -1.82955,-1.19765 -8.30916,-3.72997 -14.8962,-3.81619 -6.38039,-0.0838593 -12.8706,2.23113 -14.8962,3.82328 -4.11974,3.23626 -2.82287,10.6643 -8.50286,12.8139l1.35592 -2.31263z" />
  <path
   id="topdvsh"
   fill="url(#id20)"
   d="M50.3723 4.741c13.2852,-5.95519 25.1897,-2.48861 29.7488,1.23899 -1.72679,0.664969 -7.3808,-1.9205 -12.084,-2.14963 -5.59968,-0.274019 -11.1167,0.220869 -17.1203,2.52877 -4.44927,1.70908 -5.21463,5.42723 -6.48669,7.52608 0.97324,-3.0898 1.42206,-7.11741 5.9422,-9.14421z" />
  <path
   id="rbellb"
   fill="url(#id21)"
   d="M113.245 9.66626c9.21862,8.33987 10.2108,19.4683 4.64179,30.911 -12.2328,5.51936 -36.4528,-19.1554 -33.2768,-28.0314 7.36544,-8.6316 19.8699,-10.6017 28.635,-2.87956z" />
  <path
   id="rbellcentd"
   fill="#656B6F"
   d="M111.926 11.9624c1.3512,1.03938 2.14373,2.27483 1.77049,2.76027 -0.373233,0.485439 -1.77049,0.0354335 -3.12169,-1.00277 -1.3512,-1.03938 -2.14373,-2.27483 -1.77049,-2.76027 0.373233,-0.485439 1.77049,-0.0354335 3.12169,1.00277z" />
  <path
   id="rbellc"
   fill="#989B9F"
   d="M111.59 12.4017c0.675599,0.519691 1.07127,1.13742 0.884657,1.37954 -0.186616,0.24331 -1.34529,0.362603 -2.02089,-0.155907 -0.675599,-0.519691 -0.611819,-1.4823 -0.425202,-1.72561 0.186616,-0.242129 0.885838,-0.0177168 1.56144,0.501975z" />
  <path
   id="rbellpt"
   fill="#B5BABE"
   d="M111.59 12.4017c0.675599,0.519691 1.07127,1.13742 0.884657,1.37954 -0.186616,0.24331 -0.884657,0.0177168 -1.56026,-0.500794 -0.675599,-0.519691 -1.07245,-1.13742 -0.885838,-1.38073 0.186616,-0.242129 0.885838,-0.0177168 1.56144,0.501975z" />
  <path
   id="lbellcentd"
   fill="#656B6F"
   d="M16.6219 12.0923c-1.3512,1.03938 -2.14373,2.27483 -1.77049,2.76027 0.373233,0.485439 1.77049,0.0354335 3.12169,-1.00277 1.3512,-1.03938 2.14373,-2.27483 1.77049,-2.76027 -0.373233,-0.485439 -1.77049,-0.0354335 -3.12169,1.00277z" />
  <path
   id="lbellc"
   fill="#989B9F"
   d="M16.9585 12.5317c-0.675599,0.519691 -1.07127,1.13742 -0.884657,1.37954 0.186616,0.24331 1.22364,0.457092 1.89924,-0.0614181 0.675599,-0.519691 0.733474,-1.57679 0.546857,-1.8201 -0.186616,-0.242129 -0.885838,-0.0177168 -1.56144,0.501975z" />
  <path
   id="lbellpt"
   fill="#F0F5F7"
   d="M16.9585 12.5317c-0.675599,0.519691 -1.07127,1.13742 -0.884657,1.37954 0.186616,0.24331 0.884657,0.0177168 1.56026,-0.500794 0.675599,-0.519691 1.07245,-1.13742 0.885838,-1.38073 -0.186616,-0.242129 -0.885838,-0.0177168 -1.56144,0.501975z" />
  <path
   id="rbellbrig"
   fill="white"
   mask="url(#id22)"
   d="M86.3385 11.9942c5.01857,-5.55243 14.6388,-9.31311 24.3428,-3.58941 2.77917,2.01735 2.5146,2.42365 -0.060237,1.76223 -4.6288,-1.26616 -5.15321,0.996863 0.837412,5.58314 -8.68003,0.0236223 -12.4065,8.08711 -19.6136,10.5226 -3.22681,-3.42051 -5.05754,-6.71819 -6.4548,-10.6407 -0.0625992,-1.0323 -0.321264,-2.52168 0.948437,-3.63784z" />
  <path
   id="lbellbrig"
   fill="white"
   mask="url(#id24)"
   d="M42.0383 11.8856c-5.01857,-5.55243 -14.6305,-9.01192 -23.933,-3.4217 -2.77917,2.01735 -2.88665,2.35397 -0.311815,1.69254 4.6288,-1.26616 5.15321,0.996863 -0.837412,5.58314 3.15949,6.3048 12.3533,10.2545 19.6136,10.5226 3.50201,-3.35555 5.30203,-6.36268 6.59299,-10.9112 0.24331,-1.17049 -0.171262,-2.40121 -1.12442,-3.4654z" />
  <path
   id="lbellpinst"
   fill="url(#id26)"
   d="M7.34537 30.9441c9.35326,1.51065 30.0641,-14.81 27.4716,-24.8247 2.00436,0.858672 3.02484,1.30395 5.27959,2.94216 3.14177,9.19854 -18.6061,30.0559 -31.4283,27.3299 -0.615362,-1.77168 -1.07954,-3.58115 -1.32285,-5.44731z" />
  <path
   id="rbellpinst"
   fill="url(#id27)"
   d="M93.737 6.10283c0.643709,8.28908 17.1498,25.6019 27.4232,23.6956 -0.220869,2.35397 -0.791348,4.66541 -1.64884,6.94379 -10.6407,1.65829 -30.1185,-16.5498 -31.7,-27.2873 1.70199,-1.42088 4.01107,-2.77444 5.92566,-3.35201z" />
  <path
   id="lfshdw"
   fill="#656B6F"
   mask="url(#id28)"
   d="M28.1519 111.946c3.62603,3.3839 6.79969,5.87488 11.999,8.68475l-1.47994 2.39058c-2.7957,0.682686 -12.4005,0.579928 -13.6407,-1.1634 0.987414,-1.29687 3.60123,-7.92057 3.12169,-9.91193z" />
  <path
   id="rfshdw"
   fill="#656B6F"
   mask="url(#id30)"
   d="M89.1661 120.744c4.76344,-2.55357 8.60207,-5.42251 11.8147,-8.50758 0.382682,3.34374 1.33112,6.60362 3.28941,9.70878 -0.929539,1.46577 -5.81228,1.86971 -13.4021,1.54844l-1.70199 -2.74964z" />
 </g>
</svg>
